<svg width="16" height="8" viewBox="0 0 16 8" fill="none" xmlns="http://www.w3.org/2000/svg">
    <path d="M12.1118 0C10.1759 0 8.73597 1.70394 8 2.81589C7.26403 1.69594 5.82408 0 3.88815 0C2.84282 0.0168518 1.84677 0.447236 1.11808 1.19691C0.389395 1.94659 -0.0125356 2.95446 0.000298157 3.99985C0.000298157 6.20777 1.74423 7.9997 3.88815 7.9997C5.82408 7.9997 7.26403 6.29577 8 5.18381C8.73597 6.30376 10.1759 7.9997 12.1118 7.9997C13.1572 7.98285 14.1532 7.55247 14.8819 6.80279C15.6106 6.05311 16.0125 5.04524 15.9997 3.99985C15.9997 1.79193 14.2558 0 12.1118 0ZM3.88815 6.79975C3.5278 6.79247 3.1724 6.71426 2.84228 6.5696C2.51215 6.42494 2.21376 6.21665 1.96415 5.95664C1.71455 5.69663 1.51861 5.39 1.38754 5.05424C1.25646 4.71849 1.19282 4.3602 1.20025 3.99985C1.20025 2.45591 2.40021 1.19996 3.88815 1.19996C5.58409 1.19996 6.90404 3.25588 7.32002 3.99985C6.89604 4.74382 5.58409 6.79975 3.88815 6.79975V6.79975ZM12.1118 6.79975C10.4159 6.79975 9.09596 4.74382 8.67997 3.99985C9.10396 3.25588 10.4159 1.19996 12.1118 1.19996C12.8389 1.21675 13.5298 1.52069 14.0335 2.04534C14.5371 2.56999 14.8126 3.27269 14.7997 3.99985C14.7997 5.54379 13.5998 6.79975 12.1118 6.79975Z" fill="white"/>
</svg>
